<?xml version="1.0" encoding="iso-8859-1"?>
<!-- Generator: Adobe Illustrator 19.0.0, SVG Export Plug-In . SVG Version: 6.00 Build 0)  -->
<svg version="1.1" id="Layer_1" xmlns="http://www.w3.org/2000/svg" xmlns:xlink="http://www.w3.org/1999/xlink" x="0px" y="0px"
	 viewBox="0 0 512.001 512.001" style="enable-background:new 0 0 512.001 512.001;" xml:space="preserve">
<g>
	<path style="fill:#F95428;" d="M83.475,298.139c3.796-3.796,3.796-9.951,0-13.746c-3.796-3.796-9.951-3.796-13.746,0l-29.32,29.32
		c-3.796,3.796-3.796,9.951,0,13.746c1.897,1.897,4.386,2.848,6.873,2.848c2.487,0,4.976-0.949,6.873-2.848l7.2-7.2l31.875,31.876
		l13.746-13.746l-31.875-31.876L83.475,298.139z"/>
	<path style="fill:#F95428;" d="M217.086,227.416l-31.443-31.443l7.787-7.787c3.796-3.796,3.796-9.951,0-13.746
		c-3.796-3.798-9.951-3.796-13.746,0l-29.322,29.32c-3.796,3.796-3.796,9.951,0,13.746c1.897,1.899,4.386,2.848,6.873,2.848
		c2.487,0,4.976-0.949,6.873-2.848l7.787-7.787l31.443,31.443L217.086,227.416z"/>
	<path style="fill:#F95428;" d="M138.452,243.162c3.796-3.796,3.796-9.951,0-13.746c-3.796-3.796-9.951-3.796-13.746,0
		l-29.322,29.322c-3.796,3.796-3.796,9.951,0,13.746c1.897,1.897,4.386,2.848,6.873,2.848s4.976-0.949,6.873-2.848l7.787-7.787
		l30.579,30.58l13.746-13.746l-30.579-30.58L138.452,243.162z"/>
</g>
<path style="fill:#F7B239;" d="M496.216,131.736L370.248,5.768C366.398,1.918,361.356,0,356.301,0
	c-5.042,0-10.097,1.918-13.946,5.768c-7.699,7.699-7.699,20.18,0,27.892l3.798,3.798c0,0,8.697,73.839-39.091,121.626
	l-71.363,71.363v0.013l-18.742-18.742l-14.659,14.659l-14.659,14.659l18.742,18.742l-25.663,25.65l-18.729-18.729l-29.331,29.318
	l18.742,18.742l-25.65,25.65h-0.013l-18.729-18.742l-29.318,29.331l18.729,18.729l-78.181,78.181l22.137,22.137l69.653-62.278
	c-23.835,23.848-23.835,62.498,0,86.346c11.924,11.924,27.542,17.873,43.173,17.886c15.618-0.013,31.249-5.975,43.16-17.886
	l12.222-12.222l4.86,4.847c8.088,8.101,21.217,8.101,29.318,0c8.101-8.088,8.101-21.217,0-29.318l-4.847-4.847l5.171-5.184
	l20.465-20.465l0,0l4.86,4.847c8.101,8.088,21.23,8.088,29.331,0c8.088-8.101,8.088-21.23,0-29.331l-4.86-4.847l5.184-5.184
	l20.478-20.465l0,0l4.847,4.847c8.101,8.101,21.217,8.101,29.318,0s8.101-21.217,0-29.318l-4.847-4.847v-0.013l5.184-5.171
	l38.792-38.805c23.848-23.848,23.835-62.498,0-86.333c-11.924-11.924-27.542-17.873-43.173-17.886c-1.841,0-3.668,0.091-5.508,0.246
	c-2.575,0.231-5.14,0.625-7.676,1.183c2.535-0.557,5.1-0.953,7.676-1.183c47.8-47.502,121.38-38.831,121.38-38.831l3.798,3.798
	c7.699,7.699,20.18,7.699,27.879,0C503.915,151.929,503.915,139.435,496.216,131.736z M168.133,465.872
	c-8.23,8.23-21.632,8.23-29.875,0c-8.23-8.23-8.23-21.632,0-29.862l12.222-12.222l29.862,29.862L168.133,465.872z M179.798,394.469
	h0.013l25.65-25.65l0,0l29.862,29.862l-20.465,20.466l-5.184,5.184L179.798,394.469z M234.779,339.489l25.663-25.65l0,0
	l29.862,29.862l-20.465,20.466l-5.184,5.184L234.779,339.489z M363.599,240.531c8.23,8.243,8.23,21.645,0,29.875l-38.792,38.792
	l-5.184,5.171v0.013l-29.862-29.862v-0.013l5.184-5.171l38.792-38.805C341.967,232.301,355.368,232.301,363.599,240.531z"/>
<rect x="13.895" y="457.321" transform="matrix(-0.7071 -0.7071 0.7071 -0.7071 -289.7906 813.6442)" style="fill:#F95428;" width="19.441" height="19.038"/>
<g>
	<path style="opacity:0.25;fill:#4D4D4D;enable-background:new    ;" d="M496.216,131.736l-45.817-45.817
		c7.699,7.699,7.699,20.193,0,27.892c-7.699,7.699-20.18,7.699-27.879,0l19.338,19.338h-0.004
		c-0.119-0.014-73.616-8.632-121.378,38.831c-36.408,33.815-68.382,74.863-68.382,74.863l9.436,9.449l28.229,28.229v-0.013
		l5.184-5.171l-23.045-23.045l-5.192-5.191l38.787-38.799c10.524-10.524,23.926-16.409,37.665-17.64
		c47.8-47.502,121.38-38.831,121.38-38.831l0,0l3.798,3.798c7.699,7.699,20.18,7.699,27.879,0
		C503.913,151.929,503.915,139.435,496.216,131.736z"/>
	<polygon style="opacity:0.25;fill:#4D4D4D;enable-background:new    ;" points="234.779,339.489 239.963,334.304 222.75,317.081 
		243.216,296.613 232.199,285.597 206.55,311.246 217.566,322.263 	"/>
	<polygon style="opacity:0.25;fill:#4D4D4D;enable-background:new    ;" points="179.798,394.469 179.811,394.469 184.995,389.285 
		167.77,372.06 188.236,351.595 177.219,340.579 156.753,361.043 156.753,361.043 151.569,366.227 162.586,377.244 	"/>
	<path style="opacity:0.25;fill:#4D4D4D;enable-background:new    ;" d="M385.619,206.858c18.236,23.926,16.422,58.247-5.444,80.112
		l-38.792,38.805l-11.393-11.393l-5.184-5.184l-5.184,5.171v0.013l-4.497-4.497c8.101,8.101,8.101,21.217,0,29.318
		c-8.101,8.101-21.217,8.101-29.318,0l4.497,4.497l17.057,17.057l-0.48-0.48l-20.475,20.463l-11.384-11.39l-5.184-5.184
		l-5.184,5.184v0.013l-4.497-4.497c8.101,8.101,8.101,21.217,0,29.318c-8.101,8.101-21.217,8.101-29.318,0l4.497,4.497
		l21.548,21.548c-0.044-0.043-0.092-0.079-0.136-0.122l-4.86-4.847l-20.462,20.463l-11.384-11.39l-5.184-5.184l-5.184,5.184l0,0
		l-4.497-4.497c8.101,8.101,8.101,21.217,0,29.318c-8.101,8.101-21.217,8.101-29.318,0l4.497,4.497l21.427,21.427
		c-0.001-0.001-0.001-0.001-0.003-0.003l-4.86-4.847l-12.222,12.222c-11.911,11.911-27.542,17.873-43.16,17.886
		c-13.026-0.013-26.052-4.148-36.926-12.43c1.633,2.165,3.448,4.238,5.418,6.208c11.924,11.924,27.542,17.873,43.173,17.886
		c15.618-0.013,31.249-5.975,43.16-17.886l12.222-12.222l4.86,4.847c4.044,4.05,9.35,6.076,14.656,6.076
		c5.305,0,10.61-2.025,14.662-6.076c4.05-4.044,6.076-9.35,6.075-14.656c0-5.305-2.025-10.611-6.075-14.662l-4.847-4.847
		l5.171-5.184l20.465-20.465l4.86,4.847c1.52,1.518,3.218,2.752,5.028,3.699c7.825,4.118,17.72,2.884,24.303-3.699
		c6.583-6.583,7.815-16.477,3.7-24.302c-0.949-1.809-2.181-3.509-3.7-5.03l-4.775-4.762l-0.073-0.073l-0.013-0.013l5.184-5.184
		l20.478-20.465l4.847,4.847c8.101,8.101,21.217,8.101,29.318,0s8.101-21.217,0-29.318l-4.847-4.847v-0.013l5.184-5.171
		l38.792-38.805c23.848-23.848,23.835-62.498,0-86.333C389.858,210.319,387.784,208.517,385.619,206.858z"/>
</g>
<g>
</g>
<g>
</g>
<g>
</g>
<g>
</g>
<g>
</g>
<g>
</g>
<g>
</g>
<g>
</g>
<g>
</g>
<g>
</g>
<g>
</g>
<g>
</g>
<g>
</g>
<g>
</g>
<g>
</g>
</svg>
